<svg xmlns="http://www.w3.org/2000/svg" viewBox="0 0 24.01 24"><defs><style>.cls-1{fill:#404040;}</style></defs><g id="drawing"><path id="_24x24" data-name="24x24" class="cls-1" d="M595.17,282.57a12.29,12.29,0,0,1-1.36,3.25,3.08,3.08,0,0,0-4.32,4.31,12.53,12.53,0,0,1-3.27,1.35,3.08,3.08,0,0,0-6.12,0,11.59,11.59,0,0,1-3.26-1.36,3.08,3.08,0,0,0-4.31-4.32,12.47,12.47,0,0,1-1.35-3.26,3.08,3.08,0,0,0,0-6.12,12.26,12.26,0,0,1,1.35-3.25,3.08,3.08,0,0,0,4.33-4.32,11.94,11.94,0,0,1,3.25-1.35,3.1,3.1,0,0,0,3.06,2.7h.06a3.09,3.09,0,0,0,3-2.69,12.29,12.29,0,0,1,3.25,1.36,3.08,3.08,0,0,0,.24,4.07,3.06,3.06,0,0,0,4.07.27,12.11,12.11,0,0,1,1.34,3.26,3.08,3.08,0,0,0,0,6.12Zm-18.09-1.19h.82v-3.13h1.15v-.67h-3.12v.67h1.15Zm2.28-1.12c.1.7.6,1.17,1.57,1.17s1.52-.48,1.52-1.17c0-.53-.24-.94-1.34-1.2-.62-.15-.78-.25-.78-.52s.2-.4.54-.4.62.25.66.48h.82c-.05-.55-.45-1.09-1.46-1.09s-1.39.44-1.39,1.11c0,.51.25.88,1.28,1.13.65.15.84.28.84.59s-.19.45-.63.45a.71.71,0,0,1-.8-.55Zm4.45,1.12v-1.16c0-.68,0-1.46,0-1.79h0c.19.44,1.16,2.2,1.57,2.95h1v-3.8h-.75v1.13c0,.62,0,1.28,0,1.67h0c-.17-.41-1.05-1.95-1.52-2.8h-1v3.8Zm5.81-1.17a.76.76,0,0,1-.78.58c-.73,0-1-.68-1-1.32s.26-1.3.94-1.3a.75.75,0,0,1,.8.58h.82a1.46,1.46,0,0,0-1.6-1.22,1.79,1.79,0,0,0-1.81,2,1.72,1.72,0,0,0,1.78,1.93,1.52,1.52,0,0,0,1.63-1.22Z" transform="translate(-571.18 -267.48)"/></g></svg>