<svg xmlns="http://www.w3.org/2000/svg" viewBox="0 0 24.02 24.02"><defs><style>.cls-1{fill:#404040;}</style></defs><g id="Layer_2" data-name="Layer 2"><g id="drawing"><path id="_24x24" data-name="24x24" class="cls-1" d="M24,15.1a12.14,12.14,0,0,1-1.35,3.26,3.09,3.09,0,0,0-4.33,4.31A12.53,12.53,0,0,1,15.05,24a3.08,3.08,0,0,0-6.13,0,12.35,12.35,0,0,1-3.26-1.36,3.09,3.09,0,0,0-4.31-4.33A12,12,0,0,1,0,15.05,3.09,3.09,0,0,0,2.71,12,3.1,3.1,0,0,0,0,8.93,12.14,12.14,0,0,1,1.36,5.67a3.1,3.1,0,0,0,1.88.66,3,3,0,0,0,2.19-.91,3.07,3.07,0,0,0,.26-4.07A12.33,12.33,0,0,1,9,0,3.08,3.08,0,0,0,12,2.7h.05A3.09,3.09,0,0,0,15.12,0a12,12,0,0,1,3.25,1.37,3.09,3.09,0,0,0,2.44,5,3.15,3.15,0,0,0,1.88-.65A12.35,12.35,0,0,1,24,9a3.09,3.09,0,0,0,0,6.13ZM5.9,13.91h.83V10.78H7.88v-.67H4.75v.67H5.9Zm2.29-1.12c.09.7.6,1.17,1.56,1.17s1.53-.47,1.53-1.17c0-.53-.24-.94-1.35-1.21-.61-.14-.77-.24-.77-.51s.2-.41.53-.41c.49,0,.62.26.66.49h.83c-.06-.55-.46-1.1-1.47-1.1s-1.39.45-1.39,1.12c0,.51.25.88,1.29,1.13.65.15.83.28.83.59s-.19.45-.63.45-.71-.16-.8-.55Zm4.45,1.12V12.75c0-.68,0-1.46,0-1.79h0c.19.44,1.16,2.21,1.57,2.95h1v-3.8H14.4v1.12c0,.63,0,1.29,0,1.68h0c-.17-.41-1-1.95-1.53-2.8h-1v3.8Zm5.81-1.17a.76.76,0,0,1-.78.58c-.74,0-1-.68-1-1.32s.26-1.3.94-1.3a.75.75,0,0,1,.8.58h.82a1.47,1.47,0,0,0-1.6-1.23,1.8,1.8,0,0,0-1.81,2A1.72,1.72,0,0,0,17.63,14a1.53,1.53,0,0,0,1.64-1.22Z"/></g></g></svg>